<svg xmlns="http://www.w3.org/2000/svg" viewBox="0 0 237 254" fill="currentColor" width="64" height="64"><path d="M70.5439 237.743C70.5439 237.743 83.0162 224.85 101.738 223.683C120.46 222.516 189.865 203.363 213.644 145.956C213.644 172.511 214.995 199.463 140.638 224.081C151.283 227.211 180.517 223.683 201.172 209.623C191.03 227.583 186.74 240.475 121.625 235.806C137.99 243.234 141.511 247.134 158.671 249.866C140.638 260.026 115.005 248.699 106.822 245.171C98.6397 241.643 70.5704 237.743 70.5704 237.743H70.5439Z"></path><path d="M45.2021 213.152C45.2021 213.152 54.179 199.092 43.2426 187.366C43.2426 166.277 32.7033 142.057 70.5439 81.9181C70.5439 81.9181 35.8545 75.5249 31.5647 165.508C23.3822 149.113 17.5301 136.221 17.9273 116.298C1.16514 129.191 11.3071 160.839 31.194 194.821C17.1593 182.326 6.62011 172.935 0 157.337C0 189.356 12.4723 207.713 45.2286 213.205L45.2021 213.152Z"></path><path d="M188.673 164.314C188.673 164.314 233.134 128.581 198.603 79.0796C192.46 81.812 193.334 88.1522 193.334 88.1522C193.334 88.1522 203.529 108.95 200.192 125.344C194.208 115.688 183.695 100.435 183.695 100.435C183.695 100.435 175.354 106.138 176.678 108.632C179.564 114.123 197.968 136.645 194.049 145.93C182.821 134.709 179.299 125.318 170.534 126.803C168.495 133.541 189.547 147.893 188.673 164.287V164.314Z"></path><path d="M118.5 33.3721C118.5 33.3721 139.843 26.3422 173.473 47.1401C168.495 57.088 167.039 56.5044 167.039 56.5044C167.039 56.5044 135.156 36.8738 118.5 33.3721Z"></path><path d="M147.734 76.4269L154.169 68.5215C154.169 68.5215 139.552 56.7962 124.935 54.4618C127.848 62.6589 147.734 76.4269 147.734 76.4269Z"></path><path d="M136.057 177.498V167.258L167.621 175.747L136.057 177.498Z"></path><path d="M86.5116 137.521L96.6801 136.327L84.605 105.873L86.5116 137.521Z"></path><path d="M122.896 194.503V186.571H130.496L143.365 204.45L122.896 194.503Z"></path><path d="M79.2295 145.559V153.464H71.6296L58.7601 135.584L79.2295 145.559Z"></path><path d="M109.735 202.7L119.665 199.967V211.48L109.735 202.7Z"></path><path d="M67.684 170.123L67.8959 159.804L56.7476 162.616L67.684 170.123Z"></path><path d="M91.5959 202.7H98.3219L93.3436 218.51L91.5959 202.7Z"></path><path d="M70.5439 185.669L68.452 179.249L54.9999 188.905L70.5439 185.669Z"></path><path d="M86.6175 144.683C86.6175 144.683 97.7393 137.07 121.413 144.683C129.595 158.451 127.556 179.249 127.556 179.249H122.869C122.869 179.249 121.916 162.722 119.665 154.923L114.21 153.941L111.853 149.06C111.853 149.06 100.149 143.993 89.4245 149.06L86.5911 144.657L86.6175 144.683Z"></path><path d="M53.3846 229.148V218.51L71.9209 202.7L72.8742 194.396H77.164L77.9584 199.914L83.228 199.569L84.1019 203.363L76.1313 206.467L63.0764 227.105L53.3846 229.148Z"></path><path d="M39.6147 226.575L47.4794 219.571L46.6321 228.193L52.8815 230.156L54.0466 234.825H64.1886L57.3302 242.783L50.2864 238.008L48.4063 244.004H43.3485L44.1164 240.369L40.012 241.271L40.8064 235.992L45.1756 233.843L39.6147 226.575Z"></path><path d="M77.9584 180.92C77.9584 180.92 73.086 176.941 75.0456 160.282H80.3152C80.3152 160.282 76.4226 175.853 77.9849 180.92H77.9584Z"></path><path d="M94.8 195.113C94.8 195.113 99.6194 199.145 115.587 194.078L114.581 188.905C114.581 188.905 100.07 195.696 94.8 195.113Z"></path><path d="M116.54 137.759L117.335 120.171L227.467 3.39557L237 0L236.259 9.44393L144.636 143.224L127.795 147.469V141.314L133.117 133.648L139.552 138.343L143.365 138.529V130.729L138.572 130.544V126.83L220.079 21.7529L134.494 124.097L130.204 124.867L129.807 120.569H122.896L122.313 123.302L123.902 127.546L128.139 130.623L122.896 136.38L119.665 140.492L116.54 137.759Z"></path><path d="M114.713 159.247L112.462 155.533L107.219 154.551L105.631 157.682H89.451L90.4307 176.437L84.605 183.467L83.228 191.478L91.6223 187.95L96.5212 181.636L113.998 180.204L112.489 162.192L114.74 159.273L114.713 159.247ZM95.6474 176.49L94.8 162.563L108.04 161.9L108.543 175.827L95.6474 176.49Z"></path></svg>